<svg xmlns="http://www.w3.org/2000/svg" xmlns:xlink="http://www.w3.org/1999/xlink" aria-hidden="true" role="img" class="iconify iconify--logos" width="31.88" height="32" preserveAspectRatio="xMidYMid meet" ><svg id="Layer_2" xmlns="http://www.w3.org/2000/svg" xmlns:xlink="http://www.w3.org/1999/xlink" viewBox="0 0 150.67 170.14"><defs><linearGradient id="linear-gradient" x1="83.91" y1="5.44" x2="-23.93" y2="113.27" gradientUnits="userSpaceOnUse"><stop offset="0" stop-color="#3299cc"/><stop offset=".99" stop-color="#323366"/></linearGradient><linearGradient id="linear-gradient-2" x1="108.31" y1="29.83" x2=".47" y2="137.67" xlink:href="#linear-gradient"/><linearGradient id="linear-gradient-3" x1="120.69" y1="42.22" x2="12.85" y2="150.05" xlink:href="#linear-gradient"/><linearGradient id="linear-gradient-4" x1="131.77" y1="53.29" x2="23.93" y2="161.13" xlink:href="#linear-gradient"/><linearGradient id="linear-gradient-5" x1="156.18" y1="77.7" x2="48.34" y2="185.54" xlink:href="#linear-gradient"/></defs><g id="Layer_1-2"><path d="M20.13,64.49c0,2.61,2.12,4.74,4.74,4.74,2.61,0,4.74-2.13,4.74-4.74,0-1.26-.49-2.45-1.39-3.35-.89-.89-2.08-1.39-3.35-1.39-2.61,0-4.73,2.12-4.73,4.74Z" style="fill:url(#linear-gradient);"/><path d="M35.7,97.7c0,1.27.49,2.46,1.39,3.35.89.89,2.08,1.39,3.35,1.39h0c2.61,0,4.73-2.12,4.73-4.74s-2.12-4.74-4.73-4.74c-2.61,0-4.74,2.13-4.74,4.74Z" style="fill:url(#linear-gradient-2);"/><path d="M140.86,98.02l-20.98,20.98c1.11,1.96,1.71,4.17,1.71,6.48,0,3.52-1.37,6.84-3.86,9.33-2.49,2.49-5.81,3.86-9.33,3.86-7.28,0-13.2-5.92-13.2-13.2s5.92-13.19,13.19-13.19c1.81,0,3.56.37,5.18,1.06l30.24-30.24c1.65-1.65,1.65-4.33,0-5.98-1.65-1.65-4.32-1.65-5.97,0l-20.73,20.73c-.83.83-1.91,1.24-2.99,1.24s-2.16-.41-2.99-1.24c-1.65-1.65-1.65-4.33,0-5.98l32.59-32.59c1.65-1.65,1.65-4.33,0-5.98-1.65-1.65-4.33-1.65-5.98,0l-33.24,33.24c.89,1.8,1.37,3.78,1.37,5.85,0,3.52-1.37,6.84-3.86,9.33-2.49,2.49-5.81,3.87-9.33,3.87-7.28,0-13.2-5.92-13.2-13.2,0-7.27,5.92-13.19,13.19-13.19,2.06,0,4.04.48,5.84,1.37l50.92-50.92c1.64-1.65,1.64-4.32,0-5.97-1.65-1.65-4.33-1.65-5.98,0l-42.25,42.25c-.82.83-1.91,1.24-2.99,1.24-1.08,0-2.16-.41-2.99-1.24-1.65-1.65-1.65-4.33,0-5.98l26.43-26.43c1.65-1.65,1.65-4.33,0-5.98-1.65-1.65-4.32-1.65-5.97,0l-63.74,63.74c1.08,1.91,1.7,4.11,1.7,6.45,0,7.27-5.92,13.19-13.19,13.19h0s0,0,0,0c-3.52,0-6.84-1.37-9.33-3.87-2.49-2.49-3.86-5.81-3.86-9.33,0-7.28,5.92-13.19,13.2-13.19,1.85,0,3.6.38,5.2,1.07l54.79-54.79c1.65-1.65,1.65-4.33,0-5.98-1.65-1.65-4.32-1.65-5.97,0l-35.34,35.34c-.83.83-1.91,1.24-2.99,1.24-1.08,0-2.17-.41-2.99-1.24-1.65-1.65-1.65-4.33,0-5.98L100.07,7.22c1.65-1.65,1.65-4.33,0-5.98-1.65-1.65-4.33-1.65-5.98,0l-57.41,57.41c.89,1.8,1.37,3.78,1.37,5.84,0,7.28-5.92,13.2-13.2,13.2-7.28,0-13.19-5.92-13.19-13.2,0-3.52,1.37-6.84,3.86-9.33,2.49-2.49,5.81-3.87,9.33-3.87,2.06,0,4.05.48,5.84,1.37L71.62,11.74c1.65-1.65,1.65-4.33,0-5.98-1.65-1.65-4.33-1.65-5.98,0l-27.76,27.76-28.11,16.23c-5.37,3.1-9.77,10.72-9.77,16.92v56.14c0,6.2,4.4,13.82,9.77,16.92l48.62,28.07c5.37,3.1,14.16,3.1,19.54,0l48.62-28.07c5.37-3.1,9.77-10.72,9.77-16.92v-8.29l10.53-10.53c1.65-1.65,1.65-4.33,0-5.98-1.65-1.65-4.33-1.65-5.98,0Z" style="fill:url(#linear-gradient-3);"/><path d="M87.95,92.37c0,2.61,2.12,4.74,4.73,4.74,1.27,0,2.46-.49,3.35-1.39.89-.89,1.39-2.08,1.39-3.35,0-1.27-.49-2.45-1.39-3.35-.89-.89-2.08-1.39-3.35-1.39-2.61,0-4.73,2.12-4.73,4.74Z" style="fill:url(#linear-gradient-4);"/><path d="M103.66,125.48c0,2.61,2.12,4.74,4.74,4.74,1.26,0,2.45-.49,3.35-1.39.89-.89,1.39-2.08,1.39-3.35,0-1.26-.49-2.45-1.39-3.35-.89-.89-2.08-1.39-3.35-1.39-2.61,0-4.73,2.12-4.73,4.74Z" style="fill:url(#linear-gradient-5);"/></g></svg>